<svg width="126" height="129" viewBox="0 0 126 129" fill="none" xmlns="http://www.w3.org/2000/svg">
<path d="M50.9581 68V58C50.9581 56.9 50.0581 56 48.9581 56H34.9581C33.8581 56 32.9581 56.9 32.9581 58V68C32.9581 69.1 33.8581 70 34.9581 70H48.9581C50.0581 70 50.9581 69.1 50.9581 68ZM46.9581 66H36.9581L46.9581 60V66Z" fill="black"/>
<path d="M55.9581 42H71.9581C73.0581 42 73.8581 41.2 73.9581 40.1C73.5581 39.4 73.0581 38.7 72.4581 38.1C72.3581 38 72.1581 38 71.9581 38H55.9581C54.8581 38 53.9581 38.9 53.9581 40C53.9581 41.1 54.8581 42 55.9581 42Z" fill="black"/>
<path d="M65.4581 4.7L77.0581 15.2C81.7581 16.3 86.0581 18.4 89.8581 21.4L68.1581 1.7C65.6581 -0.4 61.9581 -0.4 59.4581 1.7L3.55813 52.1C2.75813 52.8 2.65813 54.1 3.35813 54.9C4.05813 55.7 5.35813 55.8 6.15813 55.1L10.8581 50.8V101.4L14.8581 98.6V48C14.8581 47.8 14.8581 47.6 14.7581 47.4L62.0581 4.7C63.0581 3.9 64.4581 3.9 65.4581 4.7Z" fill="black"/>
<path d="M25.9581 76V91L29.9581 88.2V78H44.5581L50.2581 74H27.9581C26.8581 74 25.9581 74.9 25.9581 76Z" fill="black"/>
<path d="M112.958 104H57.9581V100.5L53.9581 103.3V116H35.4581L29.6581 120H114.958C116.058 120 116.958 119.1 116.958 118V94.2L112.958 97V104ZM112.958 116H57.9581V108H112.958V116Z" fill="black"/>
<path d="M113.958 18C112.858 18 111.958 18.9 111.958 20V41L105.958 35.6V13C105.958 11.9 105.058 11 103.958 11C102.858 11 101.958 11.9 101.958 13V32L95.9581 26.6V2C95.9581 0.9 95.0581 0 93.9581 0C92.8581 0 91.9581 0.9 91.9581 2V22.9C92.7581 23.6 93.5581 24.4 94.2581 25.2L94.5581 25.5L95.2581 26.3L95.4581 26.5L96.0581 27.2C96.4581 27.7 96.7581 28.1 96.8581 28.4L104.558 39.6L113.258 47.4C113.158 47.6 113.158 47.8 113.158 48V52.1L117.158 58V50.9L121.858 55.1C122.658 55.8 123.958 55.8 124.658 54.9C125.358 54 125.358 52.8 124.458 52.1L116.058 44.6V20C115.958 18.9 115.058 18 113.958 18Z" fill="black"/>
<path d="M2.45811 112.3C-0.141891 114.1 -0.741891 117.7 0.958109 120.3L4.55811 125.5C6.35811 128.1 9.85811 128.8 12.5581 127L21.9581 120.5L11.6581 105.8L2.45811 112.3ZM13.9581 117C13.9581 118.1 13.0581 119 11.9581 119C10.8581 119 9.95811 118.1 9.95811 117C9.95811 115.9 10.8581 115 11.9581 115C13.0581 115 13.9581 115.9 13.9581 117Z" fill="black"/>
<path d="M120.158 69.7C119.658 69 118.658 68.6 117.858 68.9L110.458 71.5L109.258 69.7L113.858 62.5C114.258 61.8 114.258 61 113.858 60.3L93.3581 30.6C92.6581 29.5 85.2581 18 67.6581 18C64.2581 18 60.8581 18.4 57.4581 19.2C56.3581 19.5 55.7581 20.6 55.9581 21.6C56.1581 22.2 56.5581 22.8 57.1581 23C57.3581 23.1 75.4581 29.6 79.6581 43.1L72.5581 53.4C72.0581 54.1 72.0581 55 72.5581 55.7L76.0581 60.8L14.9581 103.6L25.2581 118.3L86.3581 76.2V76.3L87.8581 78.5C88.3581 79.2 89.1581 79.5 90.0581 79.3L96.6581 77.5L98.4581 80.1L94.0581 86.4C93.5581 87.1 93.5581 88 94.0581 88.7L98.4581 95.2C99.5581 96.8 101.258 97.7 103.158 97.7C104.358 97.7 105.458 97.4 106.458 96.7L123.358 84.9C125.958 83.1 126.558 79.5 124.858 76.9L120.158 69.7ZM98.0581 56.7C97.1581 57.3 95.8581 57.1 95.2581 56.1L89.2581 47.1C88.5581 46.2 88.7581 45 89.6581 44.3C90.5581 43.6 91.7581 43.8 92.4581 44.7C92.4581 44.8 92.5581 44.8 92.5581 44.9L98.5581 53.9C99.1581 54.8 98.9581 56.1 98.0581 56.7Z" fill="black"/>
</svg>
