<svg width="93" height="119" viewBox="0 0 93 119" fill="none" xmlns="http://www.w3.org/2000/svg">
<path d="M2.64444 0C1.25981 0.000132222 0.000132222 1.25985 0 2.64444V116.356C0 117.66 1.18775 118.996 2.64444 119H89.9111C91.2957 119 92.5554 117.74 92.5556 116.356V21.1556C92.5556 20.4653 92.2614 19.7815 91.7706 19.2962L73.2594 0.785069C72.7741 0.294234 72.0902 0.00528889 71.4 0H2.64444ZM5.28889 5.28889H68.7556V21.1556C68.7727 22.383 69.7931 23.7974 71.4 23.8H87.2667V113.711H5.28889V5.28889ZM74.0444 9.04896L83.5067 18.5111H74.0444V9.04896ZM15.8667 26.4444C14.4823 26.4577 13.2547 27.8977 13.2222 29.0889V37.0222C13.2224 38.4069 14.482 39.6665 15.8667 39.6667H23.8C25.1846 39.6665 26.4443 38.4069 26.4444 37.0222V29.0889C26.4443 27.7043 25.1846 26.4446 23.8 26.4444H15.8667ZM38.3444 30.4111C36.8839 30.4111 35.7 31.595 35.7 33.0556C35.7 34.5161 36.8839 35.7 38.3444 35.7H76.6889C78.1494 35.7 79.3333 34.5161 79.3333 33.0556C79.3333 31.595 78.1494 30.4111 76.6889 30.4111H38.3444ZM18.5111 31.7333H21.1556V34.3778H18.5111V31.7333ZM15.8667 47.6C14.4823 47.6132 13.2547 49.0533 13.2222 50.2444V58.1778C13.2224 59.5624 14.482 60.8221 15.8667 60.8222H23.8C25.1846 60.8221 26.4443 59.5624 26.4444 58.1778V50.2444C26.4443 48.8598 25.1846 47.6001 23.8 47.6H15.8667ZM38.3444 51.5667C36.8839 51.5667 35.7 52.7506 35.7 54.2111C35.7 55.6716 36.8839 56.8556 38.3444 56.8556H76.6889C78.1494 56.8556 79.3333 55.6716 79.3333 54.2111C79.3333 52.7506 78.1494 51.5667 76.6889 51.5667H38.3444ZM18.5111 52.8889H21.1556V55.5333H18.5111V52.8889ZM15.8667 68.7556C14.4823 68.7688 13.2547 70.2088 13.2222 71.4V79.3333C13.2224 80.718 14.482 81.9776 15.8667 81.9778H23.8C25.1846 81.9776 26.4443 80.718 26.4444 79.3333V71.4C26.4443 70.0154 25.1846 68.7557 23.8 68.7556H15.8667ZM38.3444 72.7222C36.8839 72.7222 35.7 73.9061 35.7 75.3667C35.7 76.8272 36.8839 78.0111 38.3444 78.0111H76.6889C78.1494 78.0111 79.3333 76.8272 79.3333 75.3667C79.3333 73.9061 78.1494 72.7222 76.6889 72.7222H38.3444ZM18.5111 74.0444H21.1556V76.6889H18.5111V74.0444ZM15.8667 89.9111C14.4823 89.9243 13.2547 91.3644 13.2222 92.5556V100.489C13.2224 101.874 14.482 103.133 15.8667 103.133H23.8C25.1846 103.133 26.4443 101.874 26.4444 100.489V92.5556C26.4443 91.1709 25.1846 89.9112 23.8 89.9111H15.8667ZM38.3444 93.8778C36.8839 93.8778 35.7 95.0617 35.7 96.5222C35.7 97.9827 36.8839 99.1667 38.3444 99.1667H76.6889C78.1494 99.1667 79.3333 97.9827 79.3333 96.5222C79.3333 95.0617 78.1494 93.8778 76.6889 93.8778H38.3444ZM18.5111 95.2H21.1556V97.8444H18.5111V95.2Z" fill="black"/>
</svg>
