<svg width="137" height="128" viewBox="0 0 137 128" fill="none" xmlns="http://www.w3.org/2000/svg">
<path d="M70.553 15.9761C69.5818 15.1195 68.1284 15.1195 67.1572 15.9761L16.5853 60.6268C16.033 61.1141 15.7167 61.8135 15.7167 62.5504V124.802C15.7167 126.22 16.8657 127.367 18.2815 127.367H55.6038H82.1063H119.429C120.844 127.367 121.993 126.22 121.993 124.802V62.5504C121.993 61.8152 121.677 61.1141 121.125 60.6268L70.553 15.9761ZM58.1686 122.237V93.5293C58.1686 90.6755 59.28 87.9911 61.2976 85.9735C63.3169 83.9542 66.0014 82.8428 68.8551 82.8428C71.7088 82.8428 74.3932 83.9542 76.4126 85.9735C78.4302 87.9928 79.5416 90.6755 79.5416 93.5293V122.237H58.1686ZM116.864 122.237H84.6711V93.5293C84.6711 89.306 83.0262 85.334 80.0391 82.3452C77.0503 79.3581 73.0801 77.7132 68.8551 77.7132C64.6301 77.7132 60.6598 79.3581 57.671 82.3452C54.6839 85.334 53.0391 89.3042 53.0391 93.5293V122.237H20.8462V63.708L68.8551 21.321L116.864 63.708V122.237Z" fill="black"/>
<path d="M136.134 59.2385L121.997 46.7584V22.7847C121.997 21.3673 120.848 20.22 119.432 20.22H109.036C107.621 20.22 106.472 21.3673 106.472 22.7847V33.0523L70.5547 1.34334C70.529 1.32111 70.5017 1.30743 70.4743 1.2852C70.4025 1.22707 70.3273 1.17577 70.2503 1.12448C70.1836 1.08173 70.1187 1.03898 70.0503 1.00137C69.9716 0.960332 69.8912 0.927843 69.8109 0.893647C69.7356 0.86287 69.6604 0.833803 69.5835 0.811575C69.5048 0.787638 69.4245 0.772248 69.3424 0.75686C69.2603 0.741471 69.18 0.724373 69.0962 0.717534C69.0175 0.710694 68.9389 0.710694 68.8585 0.708984C68.773 0.708984 68.6892 0.708985 68.6055 0.717534C68.5285 0.724373 68.4516 0.739762 68.3746 0.755151C68.2891 0.770539 68.2036 0.789347 68.1199 0.813284C68.048 0.835512 67.9779 0.86287 67.9078 0.890227C67.8223 0.924424 67.7386 0.960331 67.6582 1.00308C67.5915 1.03898 67.5283 1.08002 67.4633 1.12277C67.3863 1.17235 67.3111 1.22365 67.2393 1.28349C67.2119 1.30572 67.1829 1.3194 67.1572 1.34162L1.57635 59.2385C0.516246 60.1755 0.413656 61.7964 1.35065 62.8582C1.85847 63.4327 2.56463 63.7251 3.27593 63.7251C3.8795 63.7251 4.48307 63.5131 4.97208 63.0839L68.8551 6.69L107.22 40.5585C107.224 40.5602 107.226 40.5619 107.229 40.5653L117.604 49.7249C117.633 49.7557 117.666 49.7797 117.698 49.807L132.736 63.0839C133.225 63.5148 133.831 63.7251 134.433 63.7251C135.144 63.7251 135.85 63.4327 136.356 62.8582C137.295 61.7964 137.196 60.1755 136.134 59.2385ZM111.601 25.3495H116.867V42.2307L111.601 37.58V25.3495Z" fill="black"/>
<path d="M57.671 46.2506C54.6839 49.2394 53.0391 53.2097 53.0391 57.4347V66.1719C53.0391 67.5894 54.1881 68.7367 55.6038 68.7367H82.1063C83.5221 68.7367 84.6711 67.5894 84.6711 66.1719V57.4347C84.6711 53.2114 83.0262 49.2394 80.0391 46.2506C77.0503 43.2635 73.0801 41.6187 68.8551 41.6187C64.6301 41.6187 60.6598 43.2635 57.671 46.2506ZM79.5416 57.4347V63.6072H58.1686V57.4347C58.1686 54.5809 59.28 51.8965 61.2976 49.8789C63.3169 47.8596 66.0014 46.7482 68.8551 46.7482C71.7088 46.7482 74.3932 47.8596 76.4126 49.8789C78.4302 51.8965 79.5416 54.5792 79.5416 57.4347Z" fill="black"/>
</svg>
