<svg width="91" height="127" viewBox="0 0 91 127" fill="none" xmlns="http://www.w3.org/2000/svg">
<path d="M65.2727 44.2778C68.0028 44.2778 70.2159 42.0647 70.2159 39.3347C70.2159 36.6046 68.0028 34.3915 65.2727 34.3915C62.5427 34.3915 60.3295 36.6046 60.3295 39.3347C60.3295 42.0647 62.5427 44.2778 65.2727 44.2778Z" fill="black" stroke="black" stroke-width="4" stroke-miterlimit="10"/>
<path d="M76.1477 65.4346V73.9369L70.2159 79.8687L76.1477 85.8005L70.2159 91.7324L76.1477 97.6642L70.2159 103.596L76.1477 109.528V117.437L66.2614 124.357L56.375 117.437V66.2255C47.675 62.6664 41.5454 54.1642 41.5454 44.2778C41.5454 31.2278 52.2227 20.5505 65.2727 20.5505C74.9614 20.5505 83.4636 26.4824 87.0227 34.7869C88.2091 37.7528 89 40.9164 89 44.2778C89 53.3733 83.8591 61.4801 76.1477 65.4346Z" stroke="black" stroke-width="4" stroke-miterlimit="10" stroke-linecap="round"/>
<path d="M54.7932 9.47788C59.9341 3.15061 69.0296 0.975609 76.3455 5.12788C84.65 9.67561 87.6159 19.9574 83.0682 28.262C80.8932 32.0188 77.7296 34.787 73.9728 36.1711C71.7978 36.962 69.6228 37.3574 67.25 37.1597" stroke="black" stroke-width="4" stroke-miterlimit="10" stroke-linecap="round"/>
<path d="M72.5886 21.9346C71.6 19.9573 70.2159 17.9801 68.4364 16.3983C61.7136 9.67553 52.025 8.09371 43.7205 11.2573C40.9523 12.4437 38.1841 14.0255 35.8114 16.3983C29.8795 22.3301 27.9023 30.8323 29.8795 38.5437L23.3545 45.0687V53.571H15.2477V61.8755H6.74545L2 66.621V79.8687H16.0386L42.5341 53.3733" stroke="black" stroke-width="4" stroke-miterlimit="10"/>
<path d="M58.9455 21.3414C57.7591 19.7596 55.7818 18.5732 53.4091 18.5732C49.6523 18.5732 46.4886 21.7369 46.4886 25.4937C46.4886 26.6801 46.8841 27.6687 47.2796 28.6573C50.4432 25.296 54.3977 22.7255 58.9455 21.3414Z" fill="black"/>
</svg>
