<svg width="103" height="102" viewBox="0 0 103 102" fill="none" xmlns="http://www.w3.org/2000/svg">
<path d="M99.153 7.97596L94.8077 3.68589C89.6348 -1.47324 81.0133 -1.18355 75.4955 4.34802L72.0331 7.68628L95.0836 30.7506L98.4909 27.3296C104.022 21.798 104.326 13.1351 99.153 7.97596Z" fill="black"/>
<path d="M10.6892 69.4854L6.12323 84.6593L0.991699 101.792L18.0692 96.6743L33.3259 92.1083C31.4541 86.9017 28.454 82.1735 24.5405 78.2624C20.627 74.3512 15.897 71.354 10.6892 69.4854ZM10.165 88.7976L13.7792 76.7137C18.9205 79.6345 23.1768 83.8908 26.0976 89.0322L14.0137 92.6463L10.165 88.7976Z" fill="black"/>
<path d="M13.862 65.885H13.9586C19.2285 67.7849 24.0131 70.8268 27.9695 74.7928C31.926 78.7587 34.9563 83.5506 36.8435 88.8251V88.9079L91.442 34.3923L68.3914 11.3279L13.862 65.885Z" fill="black"/>
</svg>
